<?xml version="1.0" encoding="UTF-8" standalone="no"?><!DOCTYPE svg PUBLIC "-//W3C//DTD SVG 1.1//EN" "http://www.w3.org/Graphics/SVG/1.1/DTD/svg11.dtd"><svg width="100%" height="100%" viewBox="0 0 1146 2454" version="1.1" xmlns="http://www.w3.org/2000/svg" xmlns:xlink="http://www.w3.org/1999/xlink" xml:space="preserve" xmlns:serif="http://www.serif.com/" style="fill-rule:evenodd;clip-rule:evenodd;stroke-linejoin:round;stroke-miterlimit:2;"><path d="M1138,102.42c0,-56.527 -45.893,-102.42 -102.42,-102.42l-933.16,0c-56.527,0 -102.42,45.893 -102.42,102.42l0,2249.16c0,56.527 45.893,102.42 102.42,102.42l933.16,0c56.527,0 102.42,-45.893 102.42,-102.42l0,-2249.16Z" style="fill:#1a1a1a;"/><path d="M1035.91,0.001l0.331,0.001l0.331,0.003l0.33,0.003l0.33,0.005l0.33,0.006l0.329,0.007l0.33,0.007l0.329,0.009l0.329,0.01l0.328,0.011l0.329,0.012l0.328,0.013l0.327,0.014l0.328,0.015l0.327,0.016l0.327,0.017l0.327,0.019l0.326,0.019l0.326,0.02l0.326,0.021l0.326,0.022l0.325,0.024l0.325,0.024l0.325,0.025l0.325,0.026l0.324,0.028l0.324,0.028l0.323,0.029l0.324,0.031l0.323,0.031l0.323,0.032l0.322,0.034l0.322,0.034l0.322,0.035l0.322,0.036l0.321,0.038l0.321,0.038l0.321,0.039l0.32,0.041l0.32,0.041l0.32,0.042l0.319,0.043l0.319,0.044l0.319,0.046l0.319,0.046l0.318,0.047l0.318,0.048l0.317,0.049l0.318,0.05l0.317,0.051l0.316,0.052l0.316,0.053l0.316,0.054l0.316,0.055l0.315,0.056l0.315,0.057l0.315,0.058l0.314,0.058l0.314,0.06l0.314,0.061l0.313,0.061l0.313,0.063l0.312,0.063l0.313,0.065l0.311,0.065l0.312,0.067l0.311,0.067l0.311,0.068l0.311,0.069l0.31,0.071l0.309,0.071l0.31,0.072l0.309,0.073l0.309,0.073l0.308,0.075l0.308,0.076l0.308,0.077l0.307,0.077l0.307,0.079l0.306,0.079l0.306,0.081l0.306,0.081l0.306,0.082l0.305,0.083l0.304,0.084l0.304,0.085l0.304,0.086l0.304,0.087l0.303,0.088l0.303,0.088l0.302,0.09l0.302,0.09l0.302,0.091l0.301,0.093l0.301,0.093l0.3,0.094l0.3,0.095l0.299,0.096l0.3,0.096l0.298,0.098l0.299,0.098l0.298,0.1l0.297,0.1l0.298,0.101l0.296,0.102l0.297,0.103l0.296,0.104l0.295,0.105l0.295,0.105l0.295,0.107l0.294,0.107l0.294,0.108l0.294,0.109l0.293,0.11l0.292,0.111l0.292,0.112l0.292,0.112l0.291,0.114l0.291,0.114l0.291,0.115l0.29,0.116l0.289,0.117l0.289,0.118l0.289,0.118l0.288,0.12l0.288,0.12l0.288,0.121l0.286,0.122l0.287,0.123l0.286,0.123l0.286,0.125l0.285,0.125l0.284,0.126l0.285,0.127l0.283,0.128l0.284,0.129l0.282,0.13l0.283,0.13l0.282,0.131l0.281,0.132l0.281,0.133l0.281,0.134l0.28,0.134l0.279,0.136l0.279,0.136l0.279,0.137l0.278,0.137l0.278,0.139l0.277,0.139l0.277,0.141l0.276,0.141l0.276,0.142l0.275,0.142l0.275,0.144l0.274,0.144l0.274,0.145l0.273,0.146l0.273,0.147l0.273,0.147l0.272,0.148l0.271,0.15l0.271,0.149l0.27,0.151l0.27,0.152l0.269,0.152l0.269,0.153l0.268,0.154l0.268,0.154l0.268,0.156l0.266,0.156l0.267,0.157l0.265,0.158l0.266,0.158l0.264,0.159l0.265,0.16l0.263,0.161l0.264,0.162l0.262,0.162l0.262,0.164l0.262,0.163l0.261,0.165l0.261,0.166l0.26,0.166l0.259,0.167l0.259,0.167l0.258,0.169l0.258,0.169l0.258,0.17l0.256,0.171l0.257,0.171l0.255,0.173l0.256,0.173l0.254,0.173l0.254,0.175l0.254,0.175l0.253,0.176l0.252,0.177l0.252,0.177l0.251,0.179l0.251,0.178l0.25,0.18l0.25,0.18l0.249,0.182l0.248,0.181l0.248,0.183l0.247,0.183l0.247,0.184l0.246,0.185l0.246,0.186l0.245,0.186l0.245,0.187l0.244,0.187l0.243,0.189l0.243,0.189l0.242,0.189l0.241,0.191l0.241,0.191l0.241,0.192l0.24,0.193l0.239,0.193l0.238,0.194l0.238,0.195l0.238,0.195l0.237,0.196l0.236,0.197l0.236,0.197l0.235,0.199l0.234,0.198l0.234,0.2l0.233,0.2l0.233,0.201l0.232,0.202l0.231,0.202l0.231,0.203l0.23,0.204l0.23,0.204l0.229,0.205l0.228,0.206l0.228,0.206l0.227,0.207l0.226,0.208l0.226,0.208l0.225,0.209l0.225,0.21l0.224,0.21l0.223,0.211l0.223,0.212l0.222,0.212l0.222,0.213l0.22,0.214l0.22,0.214l0.22,0.215l0.219,0.216l0.218,0.216l0.218,0.217l0.217,0.218l0.216,0.218l0.216,0.219l0.215,0.22l0.214,0.22l0.214,0.22l0.213,0.222l0.212,0.222l0.212,0.223l0.211,0.223l0.21,0.224l0.21,0.225l0.209,0.225l0.208,0.226l0.208,0.226l0.207,0.227l0.206,0.228l0.206,0.228l0.205,0.229l0.204,0.23l0.204,0.23l0.203,0.231l0.202,0.231l0.202,0.232l0.201,0.233l0.2,0.233l0.2,0.234l0.198,0.234l0.199,0.235l0.197,0.236l0.197,0.236l0.196,0.237l0.195,0.238l0.195,0.238l0.194,0.238l0.193,0.239l0.193,0.24l0.192,0.241l0.191,0.241l0.191,0.241l0.189,0.242l0.189,0.243l0.189,0.243l0.187,0.244l0.187,0.245l0.186,0.245l0.186,0.246l0.185,0.246l0.184,0.247l0.183,0.247l0.183,0.248l0.181,0.248l0.182,0.249l0.18,0.25l0.18,0.25l0.178,0.251l0.179,0.251l0.177,0.252l0.177,0.252l0.176,0.253l0.175,0.254l0.175,0.254l0.173,0.254l0.173,0.256l0.173,0.255l0.171,0.257l0.171,0.256l0.17,0.258l0.169,0.258l0.169,0.258l0.167,0.259l0.167,0.259l0.166,0.26l0.166,0.261l0.165,0.261l0.163,0.262l0.164,0.262l0.162,0.262l0.162,0.264l0.161,0.263l0.16,0.265l0.159,0.264l0.158,0.266l0.158,0.265l0.157,0.267l0.156,0.266l0.156,0.268l0.154,0.268l0.154,0.268l0.153,0.269l0.152,0.269l0.152,0.27l0.151,0.27l0.149,0.271l0.15,0.271l0.148,0.272l0.147,0.273l0.147,0.273l0.146,0.273l0.145,0.274l0.144,0.274l0.144,0.275l0.142,0.275l0.142,0.276l0.141,0.276l0.141,0.277l0.139,0.277l0.139,0.278l0.137,0.278l0.137,0.279l0.136,0.279l0.136,0.279l0.134,0.28l0.134,0.281l0.133,0.281l0.132,0.281l0.131,0.282l0.13,0.283l0.13,0.282l0.129,0.284l0.128,0.283l0.127,0.285l0.126,0.284l0.125,0.285l0.125,0.286l0.123,0.286l0.123,0.287l0.122,0.286l0.121,0.288l0.12,0.288l0.12,0.288l0.118,0.289l0.118,0.289l0.117,0.289l0.116,0.29l0.115,0.291l0.114,0.291l0.114,0.291l0.112,0.292l0.112,0.292l0.111,0.292l0.11,0.293l0.109,0.294l0.108,0.294l0.107,0.294l0.107,0.295l0.105,0.295l0.105,0.295l0.104,0.296l0.103,0.297l0.102,0.296l0.101,0.298l0.1,0.297l0.1,0.298l0.098,0.299l0.098,0.298l0.096,0.3l0.096,0.299l0.095,0.3l0.094,0.3l0.093,0.301l0.093,0.301l0.091,0.302l0.09,0.302l0.09,0.302l0.088,0.303l0.088,0.303l0.087,0.304l0.086,0.304l0.085,0.304l0.084,0.304l0.083,0.305l0.082,0.306l0.081,0.306l0.081,0.306l0.079,0.306l0.079,0.307l0.077,0.307l0.077,0.308l0.076,0.308l0.075,0.308l0.073,0.309l0.073,0.309l0.072,0.31l0.071,0.309l0.071,0.31l0.069,0.311l0.068,0.311l0.067,0.311l0.067,0.312l0.065,0.311l0.065,0.313l0.063,0.312l0.063,0.313l0.061,0.313l0.061,0.314l0.06,0.314l0.058,0.314l0.058,0.315l0.057,0.315l0.056,0.315l0.055,0.316l0.054,0.316l0.053,0.316l0.052,0.316l0.051,0.317l0.05,0.318l0.049,0.317l0.048,0.318l0.047,0.318l0.046,0.319l0.046,0.319l0.044,0.319l0.043,0.319l0.042,0.32l0.041,0.32l0.041,0.32l0.039,0.321l0.038,0.321l0.038,0.321l0.036,0.322l0.035,0.322l0.034,0.322l0.034,0.322l0.032,0.323l0.031,0.323l0.031,0.324l0.029,0.323l0.028,0.324l0.028,0.324l0.026,0.325l0.025,0.325l0.024,0.325l0.024,0.325l0.022,0.326l0.021,0.326l0.02,0.326l0.019,0.326l0.019,0.327l0.017,0.327l0.016,0.327l0.015,0.328l0.014,0.327l0.013,0.328l0.012,0.329l0.011,0.328l0.01,0.329l0.009,0.329l0.007,0.33l0.007,0.329l0.006,0.33l0.005,0.33l0.003,0.33l0.003,0.331l0.001,0.331l0.001,0.331l0,2249.16l-0.001,0.331l-0.001,0.331l-0.003,0.331l-0.003,0.33l-0.005,0.33l-0.006,0.33l-0.007,0.329l-0.007,0.33l-0.009,0.329l-0.01,0.329l-0.011,0.328l-0.012,0.329l-0.013,0.328l-0.014,0.327l-0.015,0.328l-0.016,0.327l-0.017,0.327l-0.019,0.327l-0.019,0.326l-0.02,0.326l-0.021,0.326l-0.022,0.326l-0.024,0.325l-0.024,0.325l-0.025,0.325l-0.026,0.325l-0.028,0.324l-0.028,0.324l-0.029,0.323l-0.031,0.324l-0.031,0.323l-0.032,0.323l-0.034,0.322l-0.034,0.322l-0.035,0.322l-0.036,0.322l-0.038,0.321l-0.038,0.321l-0.039,0.321l-0.041,0.32l-0.041,0.32l-0.042,0.32l-0.043,0.319l-0.044,0.319l-0.046,0.319l-0.046,0.319l-0.047,0.318l-0.048,0.318l-0.049,0.317l-0.05,0.318l-0.051,0.317l-0.052,0.316l-0.053,0.316l-0.054,0.316l-0.055,0.316l-0.056,0.315l-0.057,0.315l-0.058,0.315l-0.058,0.314l-0.06,0.314l-0.061,0.314l-0.061,0.313l-0.063,0.313l-0.063,0.312l-0.065,0.313l-0.065,0.311l-0.067,0.312l-0.067,0.311l-0.068,0.311l-0.069,0.311l-0.071,0.31l-0.071,0.309l-0.072,0.31l-0.073,0.309l-0.073,0.309l-0.075,0.308l-0.076,0.308l-0.077,0.308l-0.077,0.307l-0.079,0.307l-0.079,0.306l-0.081,0.306l-0.081,0.306l-0.082,0.306l-0.083,0.305l-0.084,0.304l-0.085,0.304l-0.086,0.304l-0.087,0.304l-0.088,0.303l-0.088,0.303l-0.09,0.302l-0.09,0.302l-0.091,0.302l-0.093,0.301l-0.093,0.301l-0.094,0.3l-0.095,0.3l-0.096,0.299l-0.096,0.3l-0.098,0.298l-0.098,0.299l-0.1,0.298l-0.1,0.297l-0.101,0.298l-0.102,0.296l-0.103,0.297l-0.104,0.296l-0.105,0.295l-0.105,0.295l-0.107,0.295l-0.107,0.294l-0.108,0.294l-0.109,0.294l-0.11,0.293l-0.111,0.292l-0.112,0.292l-0.112,0.292l-0.114,0.291l-0.114,0.291l-0.115,0.291l-0.116,0.29l-0.117,0.289l-0.118,0.289l-0.118,0.289l-0.12,0.288l-0.12,0.288l-0.121,0.288l-0.122,0.286l-0.123,0.287l-0.123,0.286l-0.125,0.286l-0.125,0.285l-0.126,0.284l-0.127,0.285l-0.128,0.283l-0.129,0.284l-0.13,0.282l-0.13,0.283l-0.131,0.282l-0.132,0.281l-0.133,0.281l-0.134,0.281l-0.134,0.28l-0.136,0.279l-0.136,0.279l-0.137,0.279l-0.137,0.278l-0.139,0.278l-0.139,0.277l-0.141,0.277l-0.141,0.276l-0.142,0.276l-0.142,0.275l-0.144,0.275l-0.144,0.274l-0.145,0.274l-0.146,0.273l-0.147,0.273l-0.147,0.273l-0.148,0.272l-0.15,0.271l-0.149,0.271l-0.151,0.27l-0.152,0.27l-0.152,0.269l-0.153,0.269l-0.154,0.268l-0.154,0.268l-0.156,0.268l-0.156,0.266l-0.157,0.267l-0.158,0.265l-0.158,0.266l-0.159,0.264l-0.16,0.265l-0.161,0.263l-0.162,0.264l-0.162,0.262l-0.164,0.262l-0.163,0.262l-0.165,0.261l-0.166,0.261l-0.166,0.26l-0.167,0.259l-0.167,0.259l-0.169,0.258l-0.169,0.258l-0.17,0.258l-0.171,0.256l-0.171,0.257l-0.173,0.255l-0.173,0.256l-0.173,0.254l-0.175,0.254l-0.175,0.254l-0.176,0.253l-0.177,0.252l-0.177,0.252l-0.179,0.251l-0.178,0.251l-0.18,0.25l-0.18,0.25l-0.182,0.249l-0.181,0.248l-0.183,0.248l-0.183,0.247l-0.184,0.247l-0.185,0.246l-0.186,0.246l-0.186,0.245l-0.187,0.245l-0.187,0.244l-0.189,0.243l-0.189,0.243l-0.189,0.242l-0.191,0.241l-0.191,0.241l-0.192,0.241l-0.193,0.24l-0.193,0.239l-0.194,0.238l-0.195,0.238l-0.195,0.238l-0.196,0.237l-0.197,0.236l-0.197,0.236l-0.199,0.235l-0.198,0.234l-0.2,0.234l-0.2,0.233l-0.201,0.233l-0.202,0.232l-0.202,0.231l-0.203,0.231l-0.204,0.23l-0.204,0.23l-0.205,0.229l-0.206,0.228l-0.206,0.228l-0.207,0.227l-0.208,0.226l-0.208,0.226l-0.209,0.225l-0.21,0.225l-0.21,0.224l-0.211,0.223l-0.212,0.223l-0.212,0.222l-0.213,0.222l-0.214,0.22l-0.214,0.22l-0.215,0.22l-0.216,0.219l-0.216,0.218l-0.217,0.218l-0.218,0.217l-0.218,0.216l-0.219,0.216l-0.22,0.215l-0.22,0.214l-0.22,0.214l-0.222,0.213l-0.222,0.212l-0.223,0.212l-0.223,0.211l-0.224,0.21l-0.225,0.21l-0.225,0.209l-0.226,0.208l-0.226,0.208l-0.227,0.207l-0.228,0.206l-0.228,0.206l-0.229,0.205l-0.23,0.204l-0.23,0.204l-0.231,0.203l-0.231,0.202l-0.232,0.202l-0.233,0.201l-0.233,0.2l-0.234,0.2l-0.234,0.198l-0.235,0.199l-0.236,0.197l-0.236,0.197l-0.237,0.196l-0.238,0.195l-0.238,0.195l-0.238,0.194l-0.239,0.193l-0.24,0.193l-0.241,0.192l-0.241,0.191l-0.241,0.191l-0.242,0.189l-0.243,0.189l-0.243,0.189l-0.244,0.187l-0.245,0.187l-0.245,0.186l-0.246,0.186l-0.246,0.185l-0.247,0.184l-0.247,0.183l-0.248,0.183l-0.248,0.181l-0.249,0.182l-0.25,0.18l-0.25,0.18l-0.251,0.178l-0.251,0.179l-0.252,0.177l-0.252,0.177l-0.253,0.176l-0.254,0.175l-0.254,0.175l-0.254,0.173l-0.256,0.173l-0.255,0.173l-0.257,0.171l-0.256,0.171l-0.258,0.17l-0.258,0.169l-0.258,0.169l-0.259,0.167l-0.259,0.167l-0.26,0.166l-0.261,0.166l-0.261,0.165l-0.262,0.163l-0.262,0.164l-0.262,0.162l-0.264,0.162l-0.263,0.161l-0.265,0.16l-0.264,0.159l-0.266,0.158l-0.265,0.158l-0.267,0.157l-0.266,0.156l-0.268,0.156l-0.268,0.154l-0.268,0.154l-0.269,0.153l-0.269,0.152l-0.27,0.152l-0.27,0.151l-0.271,0.149l-0.271,0.15l-0.272,0.148l-0.273,0.147l-0.273,0.147l-0.273,0.146l-0.274,0.145l-0.274,0.144l-0.275,0.144l-0.275,0.142l-0.276,0.142l-0.276,0.141l-0.277,0.141l-0.277,0.139l-0.278,0.139l-0.278,0.137l-0.279,0.137l-0.279,0.136l-0.279,0.136l-0.28,0.134l-0.281,0.134l-0.281,0.133l-0.281,0.132l-0.282,0.131l-0.283,0.13l-0.282,0.13l-0.284,0.129l-0.283,0.128l-0.285,0.127l-0.284,0.126l-0.285,0.125l-0.286,0.125l-0.286,0.123l-0.287,0.123l-0.286,0.122l-0.288,0.121l-0.288,0.12l-0.288,0.12l-0.289,0.118l-0.289,0.118l-0.289,0.117l-0.29,0.116l-0.291,0.115l-0.291,0.114l-0.291,0.114l-0.292,0.112l-0.292,0.112l-0.292,0.111l-0.293,0.11l-0.294,0.109l-0.294,0.108l-0.294,0.107l-0.295,0.107l-0.295,0.105l-0.295,0.105l-0.296,0.104l-0.297,0.103l-0.296,0.102l-0.298,0.101l-0.297,0.1l-0.298,0.1l-0.299,0.098l-0.298,0.098l-0.3,0.096l-0.299,0.096l-0.3,0.095l-0.3,0.094l-0.301,0.093l-0.301,0.093l-0.302,0.091l-0.302,0.09l-0.302,0.09l-0.303,0.088l-0.303,0.088l-0.304,0.087l-0.304,0.086l-0.304,0.085l-0.304,0.084l-0.305,0.083l-0.306,0.082l-0.306,0.081l-0.306,0.081l-0.306,0.079l-0.307,0.079l-0.307,0.077l-0.308,0.077l-0.308,0.076l-0.308,0.075l-0.309,0.073l-0.309,0.073l-0.31,0.072l-0.309,0.071l-0.31,0.071l-0.311,0.069l-0.311,0.068l-0.311,0.067l-0.312,0.067l-0.311,0.065l-0.313,0.065l-0.312,0.063l-0.313,0.063l-0.313,0.061l-0.314,0.061l-0.314,0.06l-0.314,0.058l-0.315,0.058l-0.315,0.057l-0.315,0.056l-0.316,0.055l-0.316,0.054l-0.316,0.053l-0.316,0.052l-0.317,0.051l-0.318,0.05l-0.317,0.049l-0.318,0.048l-0.318,0.047l-0.319,0.046l-0.319,0.046l-0.319,0.044l-0.319,0.043l-0.32,0.042l-0.32,0.041l-0.32,0.041l-0.321,0.039l-0.321,0.038l-0.321,0.038l-0.322,0.036l-0.322,0.035l-0.322,0.034l-0.322,0.034l-0.323,0.032l-0.323,0.031l-0.324,0.031l-0.323,0.029l-0.324,0.028l-0.324,0.028l-0.325,0.026l-0.325,0.025l-0.325,0.024l-0.325,0.024l-0.326,0.022l-0.326,0.021l-0.326,0.02l-0.326,0.019l-0.327,0.019l-0.327,0.017l-0.327,0.016l-0.328,0.015l-0.327,0.014l-0.328,0.013l-0.329,0.012l-0.328,0.011l-0.329,0.01l-0.329,0.009l-0.33,0.007l-0.329,0.007l-0.33,0.006l-0.33,0.005l-0.33,0.003l-0.331,0.003l-0.331,0.001l-0.331,0.001l-933.16,0l-0.331,-0.001l-0.331,-0.001l-0.331,-0.003l-0.33,-0.003l-0.33,-0.005l-0.33,-0.006l-0.329,-0.007l-0.33,-0.007l-0.329,-0.009l-0.329,-0.01l-0.328,-0.011l-0.329,-0.012l-0.328,-0.013l-0.327,-0.014l-0.328,-0.015l-0.327,-0.016l-0.327,-0.017l-0.327,-0.019l-0.326,-0.019l-0.326,-0.02l-0.326,-0.021l-0.326,-0.022l-0.325,-0.024l-0.325,-0.024l-0.325,-0.025l-0.325,-0.026l-0.324,-0.028l-0.324,-0.028l-0.323,-0.029l-0.324,-0.031l-0.323,-0.031l-0.323,-0.032l-0.322,-0.034l-0.322,-0.034l-0.322,-0.035l-0.322,-0.036l-0.321,-0.038l-0.321,-0.038l-0.321,-0.039l-0.32,-0.041l-0.32,-0.041l-0.32,-0.042l-0.319,-0.043l-0.319,-0.044l-0.319,-0.046l-0.319,-0.046l-0.318,-0.047l-0.318,-0.048l-0.317,-0.049l-0.318,-0.05l-0.317,-0.051l-0.316,-0.052l-0.316,-0.053l-0.316,-0.054l-0.316,-0.055l-0.315,-0.056l-0.315,-0.057l-0.315,-0.058l-0.314,-0.058l-0.314,-0.06l-0.314,-0.061l-0.313,-0.061l-0.313,-0.063l-0.312,-0.063l-0.313,-0.065l-0.311,-0.065l-0.312,-0.067l-0.311,-0.067l-0.311,-0.068l-0.311,-0.069l-0.31,-0.071l-0.309,-0.071l-0.31,-0.072l-0.309,-0.073l-0.309,-0.073l-0.308,-0.075l-0.308,-0.076l-0.308,-0.077l-0.307,-0.077l-0.307,-0.079l-0.306,-0.079l-0.306,-0.081l-0.306,-0.081l-0.306,-0.082l-0.305,-0.083l-0.304,-0.084l-0.304,-0.085l-0.304,-0.086l-0.304,-0.087l-0.303,-0.088l-0.303,-0.088l-0.302,-0.09l-0.302,-0.09l-0.302,-0.091l-0.301,-0.093l-0.301,-0.093l-0.3,-0.094l-0.3,-0.095l-0.299,-0.096l-0.3,-0.096l-0.298,-0.098l-0.299,-0.098l-0.298,-0.1l-0.297,-0.1l-0.298,-0.101l-0.296,-0.102l-0.297,-0.103l-0.296,-0.104l-0.295,-0.105l-0.295,-0.105l-0.295,-0.107l-0.294,-0.107l-0.294,-0.108l-0.294,-0.109l-0.293,-0.11l-0.292,-0.111l-0.292,-0.112l-0.292,-0.112l-0.291,-0.114l-0.291,-0.114l-0.291,-0.115l-0.29,-0.116l-0.289,-0.117l-0.289,-0.118l-0.289,-0.118l-0.288,-0.12l-0.288,-0.12l-0.288,-0.121l-0.286,-0.122l-0.287,-0.123l-0.286,-0.123l-0.286,-0.125l-0.285,-0.125l-0.284,-0.126l-0.285,-0.127l-0.283,-0.128l-0.284,-0.129l-0.282,-0.13l-0.283,-0.13l-0.282,-0.131l-0.281,-0.132l-0.281,-0.133l-0.281,-0.134l-0.28,-0.134l-0.279,-0.136l-0.279,-0.136l-0.279,-0.137l-0.278,-0.137l-0.278,-0.139l-0.277,-0.139l-0.277,-0.141l-0.276,-0.141l-0.276,-0.142l-0.275,-0.142l-0.275,-0.144l-0.274,-0.144l-0.274,-0.145l-0.273,-0.146l-0.273,-0.147l-0.273,-0.147l-0.272,-0.148l-0.271,-0.15l-0.271,-0.149l-0.27,-0.151l-0.27,-0.152l-0.269,-0.152l-0.269,-0.153l-0.268,-0.154l-0.268,-0.154l-0.268,-0.156l-0.266,-0.156l-0.267,-0.157l-0.265,-0.158l-0.266,-0.158l-0.264,-0.159l-0.265,-0.16l-0.263,-0.161l-0.264,-0.162l-0.262,-0.162l-0.262,-0.164l-0.262,-0.163l-0.261,-0.165l-0.261,-0.166l-0.26,-0.166l-0.259,-0.167l-0.259,-0.167l-0.258,-0.169l-0.258,-0.169l-0.258,-0.17l-0.256,-0.171l-0.257,-0.171l-0.255,-0.173l-0.256,-0.173l-0.254,-0.173l-0.254,-0.175l-0.254,-0.175l-0.253,-0.176l-0.252,-0.177l-0.252,-0.177l-0.251,-0.179l-0.251,-0.178l-0.25,-0.18l-0.25,-0.18l-0.249,-0.182l-0.248,-0.181l-0.248,-0.183l-0.247,-0.183l-0.247,-0.184l-0.246,-0.185l-0.246,-0.186l-0.245,-0.186l-0.245,-0.187l-0.244,-0.187l-0.243,-0.189l-0.243,-0.189l-0.242,-0.189l-0.241,-0.191l-0.241,-0.191l-0.241,-0.192l-0.24,-0.193l-0.239,-0.193l-0.238,-0.194l-0.238,-0.195l-0.238,-0.195l-0.237,-0.196l-0.236,-0.197l-0.236,-0.197l-0.235,-0.199l-0.234,-0.198l-0.234,-0.2l-0.233,-0.2l-0.233,-0.201l-0.232,-0.202l-0.231,-0.202l-0.231,-0.203l-0.23,-0.204l-0.23,-0.204l-0.229,-0.205l-0.228,-0.206l-0.228,-0.206l-0.227,-0.207l-0.226,-0.208l-0.226,-0.208l-0.225,-0.209l-0.225,-0.21l-0.224,-0.21l-0.223,-0.211l-0.223,-0.212l-0.222,-0.212l-0.222,-0.213l-0.22,-0.214l-0.22,-0.214l-0.22,-0.215l-0.219,-0.216l-0.218,-0.216l-0.218,-0.217l-0.217,-0.218l-0.216,-0.218l-0.216,-0.219l-0.215,-0.22l-0.214,-0.22l-0.214,-0.22l-0.213,-0.222l-0.212,-0.222l-0.212,-0.223l-0.211,-0.223l-0.21,-0.224l-0.21,-0.225l-0.209,-0.225l-0.208,-0.226l-0.208,-0.226l-0.207,-0.227l-0.206,-0.228l-0.206,-0.228l-0.205,-0.229l-0.204,-0.23l-0.204,-0.23l-0.203,-0.231l-0.202,-0.231l-0.202,-0.232l-0.201,-0.233l-0.2,-0.233l-0.2,-0.234l-0.198,-0.234l-0.199,-0.235l-0.197,-0.236l-0.197,-0.236l-0.196,-0.237l-0.195,-0.238l-0.195,-0.238l-0.194,-0.238l-0.193,-0.239l-0.193,-0.24l-0.192,-0.241l-0.191,-0.241l-0.191,-0.241l-0.189,-0.242l-0.189,-0.243l-0.189,-0.243l-0.187,-0.244l-0.187,-0.245l-0.186,-0.245l-0.186,-0.246l-0.185,-0.246l-0.184,-0.247l-0.183,-0.247l-0.183,-0.248l-0.181,-0.248l-0.182,-0.249l-0.18,-0.25l-0.18,-0.25l-0.178,-0.251l-0.179,-0.251l-0.177,-0.252l-0.177,-0.252l-0.176,-0.253l-0.175,-0.254l-0.175,-0.254l-0.173,-0.254l-0.173,-0.256l-0.173,-0.255l-0.171,-0.257l-0.171,-0.256l-0.17,-0.258l-0.169,-0.258l-0.169,-0.258l-0.167,-0.259l-0.167,-0.259l-0.166,-0.26l-0.166,-0.261l-0.165,-0.261l-0.163,-0.262l-0.164,-0.262l-0.162,-0.262l-0.162,-0.264l-0.161,-0.263l-0.16,-0.265l-0.159,-0.264l-0.158,-0.266l-0.158,-0.265l-0.157,-0.267l-0.156,-0.266l-0.156,-0.268l-0.154,-0.268l-0.154,-0.268l-0.153,-0.269l-0.152,-0.269l-0.152,-0.27l-0.151,-0.27l-0.149,-0.271l-0.15,-0.271l-0.148,-0.272l-0.147,-0.273l-0.147,-0.273l-0.146,-0.273l-0.145,-0.274l-0.144,-0.274l-0.144,-0.275l-0.142,-0.275l-0.142,-0.276l-0.141,-0.276l-0.141,-0.277l-0.139,-0.277l-0.139,-0.278l-0.137,-0.278l-0.137,-0.279l-0.136,-0.279l-0.136,-0.279l-0.134,-0.28l-0.134,-0.281l-0.133,-0.281l-0.132,-0.281l-0.131,-0.282l-0.13,-0.283l-0.13,-0.282l-0.129,-0.284l-0.128,-0.283l-0.127,-0.285l-0.126,-0.284l-0.125,-0.285l-0.125,-0.286l-0.123,-0.286l-0.123,-0.287l-0.122,-0.286l-0.121,-0.288l-0.12,-0.288l-0.12,-0.288l-0.118,-0.289l-0.118,-0.289l-0.117,-0.289l-0.116,-0.29l-0.115,-0.291l-0.114,-0.291l-0.114,-0.291l-0.112,-0.292l-0.112,-0.292l-0.111,-0.292l-0.11,-0.293l-0.109,-0.294l-0.108,-0.294l-0.107,-0.294l-0.107,-0.295l-0.105,-0.295l-0.105,-0.295l-0.104,-0.296l-0.103,-0.297l-0.102,-0.296l-0.101,-0.298l-0.1,-0.297l-0.1,-0.298l-0.098,-0.299l-0.098,-0.298l-0.096,-0.3l-0.096,-0.299l-0.095,-0.3l-0.094,-0.3l-0.093,-0.301l-0.093,-0.301l-0.091,-0.302l-0.09,-0.302l-0.09,-0.302l-0.088,-0.303l-0.088,-0.303l-0.087,-0.304l-0.086,-0.304l-0.085,-0.304l-0.084,-0.304l-0.083,-0.305l-0.082,-0.306l-0.081,-0.306l-0.081,-0.306l-0.079,-0.306l-0.079,-0.307l-0.077,-0.307l-0.077,-0.308l-0.076,-0.308l-0.075,-0.308l-0.073,-0.309l-0.073,-0.309l-0.072,-0.31l-0.071,-0.309l-0.071,-0.31l-0.069,-0.311l-0.068,-0.311l-0.067,-0.311l-0.067,-0.312l-0.065,-0.311l-0.065,-0.313l-0.063,-0.312l-0.063,-0.313l-0.061,-0.313l-0.061,-0.314l-0.06,-0.314l-0.058,-0.314l-0.058,-0.315l-0.057,-0.315l-0.056,-0.315l-0.055,-0.316l-0.054,-0.316l-0.053,-0.316l-0.052,-0.316l-0.051,-0.317l-0.05,-0.318l-0.049,-0.317l-0.048,-0.318l-0.047,-0.318l-0.046,-0.319l-0.046,-0.319l-0.044,-0.319l-0.043,-0.319l-0.042,-0.32l-0.041,-0.32l-0.041,-0.32l-0.039,-0.321l-0.038,-0.321l-0.038,-0.321l-0.036,-0.322l-0.035,-0.322l-0.034,-0.322l-0.034,-0.322l-0.032,-0.323l-0.031,-0.323l-0.031,-0.324l-0.029,-0.323l-0.028,-0.324l-0.028,-0.324l-0.026,-0.325l-0.025,-0.325l-0.024,-0.325l-0.024,-0.325l-0.022,-0.326l-0.021,-0.326l-0.02,-0.326l-0.019,-0.326l-0.019,-0.327l-0.017,-0.327l-0.016,-0.327l-0.015,-0.328l-0.014,-0.327l-0.013,-0.328l-0.012,-0.329l-0.011,-0.328l-0.01,-0.329l-0.009,-0.329l-0.007,-0.33l-0.007,-0.329l-0.006,-0.33l-0.005,-0.33l-0.003,-0.33l-0.003,-0.331l-0.001,-0.331l-0.001,-0.331l0,-2249.16l0.001,-0.331l0.001,-0.331l0.003,-0.331l0.003,-0.33l0.005,-0.33l0.006,-0.33l0.007,-0.329l0.007,-0.33l0.009,-0.329l0.01,-0.329l0.011,-0.328l0.012,-0.329l0.013,-0.328l0.014,-0.327l0.015,-0.328l0.016,-0.327l0.017,-0.327l0.019,-0.327l0.019,-0.326l0.02,-0.326l0.021,-0.326l0.022,-0.326l0.024,-0.325l0.024,-0.325l0.025,-0.325l0.026,-0.325l0.028,-0.324l0.028,-0.324l0.029,-0.323l0.031,-0.324l0.031,-0.323l0.032,-0.323l0.034,-0.322l0.034,-0.322l0.035,-0.322l0.036,-0.322l0.038,-0.321l0.038,-0.321l0.039,-0.321l0.041,-0.32l0.041,-0.32l0.042,-0.32l0.043,-0.319l0.044,-0.319l0.046,-0.319l0.046,-0.319l0.047,-0.318l0.048,-0.318l0.049,-0.317l0.05,-0.318l0.051,-0.317l0.052,-0.316l0.053,-0.316l0.054,-0.316l0.055,-0.316l0.056,-0.315l0.057,-0.315l0.058,-0.315l0.058,-0.314l0.06,-0.314l0.061,-0.314l0.061,-0.313l0.063,-0.313l0.063,-0.312l0.065,-0.313l0.065,-0.311l0.067,-0.312l0.067,-0.311l0.068,-0.311l0.069,-0.311l0.071,-0.31l0.071,-0.309l0.072,-0.31l0.073,-0.309l0.073,-0.309l0.075,-0.308l0.076,-0.308l0.077,-0.308l0.077,-0.307l0.079,-0.307l0.079,-0.306l0.081,-0.306l0.081,-0.306l0.082,-0.306l0.083,-0.305l0.084,-0.304l0.085,-0.304l0.086,-0.304l0.087,-0.304l0.088,-0.303l0.088,-0.303l0.09,-0.302l0.09,-0.302l0.091,-0.302l0.093,-0.301l0.093,-0.301l0.094,-0.3l0.095,-0.3l0.096,-0.299l0.096,-0.3l0.098,-0.298l0.098,-0.299l0.1,-0.298l0.1,-0.297l0.101,-0.298l0.102,-0.296l0.103,-0.297l0.104,-0.296l0.105,-0.295l0.105,-0.295l0.107,-0.295l0.107,-0.294l0.108,-0.294l0.109,-0.294l0.11,-0.293l0.111,-0.292l0.112,-0.292l0.112,-0.292l0.114,-0.291l0.114,-0.291l0.115,-0.291l0.116,-0.29l0.117,-0.289l0.118,-0.289l0.118,-0.289l0.12,-0.288l0.12,-0.288l0.121,-0.288l0.122,-0.286l0.123,-0.287l0.123,-0.286l0.125,-0.286l0.125,-0.285l0.126,-0.284l0.127,-0.285l0.128,-0.283l0.129,-0.284l0.13,-0.282l0.13,-0.283l0.131,-0.282l0.132,-0.281l0.133,-0.281l0.134,-0.281l0.134,-0.28l0.136,-0.279l0.136,-0.279l0.137,-0.279l0.137,-0.278l0.139,-0.278l0.139,-0.277l0.141,-0.277l0.141,-0.276l0.142,-0.276l0.142,-0.275l0.144,-0.275l0.144,-0.274l0.145,-0.274l0.146,-0.273l0.147,-0.273l0.147,-0.273l0.148,-0.272l0.15,-0.271l0.149,-0.271l0.151,-0.27l0.152,-0.27l0.152,-0.269l0.153,-0.269l0.154,-0.268l0.154,-0.268l0.156,-0.268l0.156,-0.266l0.157,-0.267l0.158,-0.265l0.158,-0.266l0.159,-0.264l0.16,-0.265l0.161,-0.263l0.162,-0.264l0.162,-0.262l0.164,-0.262l0.163,-0.262l0.165,-0.261l0.166,-0.261l0.166,-0.26l0.167,-0.259l0.167,-0.259l0.169,-0.258l0.169,-0.258l0.17,-0.258l0.171,-0.256l0.171,-0.257l0.173,-0.255l0.173,-0.256l0.173,-0.254l0.175,-0.254l0.175,-0.254l0.176,-0.253l0.177,-0.252l0.177,-0.252l0.179,-0.251l0.178,-0.251l0.18,-0.25l0.18,-0.25l0.182,-0.249l0.181,-0.248l0.183,-0.248l0.183,-0.247l0.184,-0.247l0.185,-0.246l0.186,-0.246l0.186,-0.245l0.187,-0.245l0.187,-0.244l0.189,-0.243l0.189,-0.243l0.189,-0.242l0.191,-0.241l0.191,-0.241l0.192,-0.241l0.193,-0.24l0.193,-0.239l0.194,-0.238l0.195,-0.238l0.195,-0.238l0.196,-0.237l0.197,-0.236l0.197,-0.236l0.199,-0.235l0.198,-0.234l0.2,-0.234l0.2,-0.233l0.201,-0.233l0.202,-0.232l0.202,-0.231l0.203,-0.231l0.204,-0.23l0.204,-0.23l0.205,-0.229l0.206,-0.228l0.206,-0.228l0.207,-0.227l0.208,-0.226l0.208,-0.226l0.209,-0.225l0.21,-0.225l0.21,-0.224l0.211,-0.223l0.212,-0.223l0.212,-0.222l0.213,-0.222l0.214,-0.22l0.214,-0.22l0.215,-0.22l0.216,-0.219l0.216,-0.218l0.217,-0.218l0.218,-0.217l0.218,-0.216l0.219,-0.216l0.22,-0.215l0.22,-0.214l0.22,-0.214l0.222,-0.213l0.222,-0.212l0.223,-0.212l0.223,-0.211l0.224,-0.21l0.225,-0.21l0.225,-0.209l0.226,-0.208l0.226,-0.208l0.227,-0.207l0.228,-0.206l0.228,-0.206l0.229,-0.205l0.23,-0.204l0.23,-0.204l0.231,-0.203l0.231,-0.202l0.232,-0.202l0.233,-0.201l0.233,-0.2l0.234,-0.2l0.234,-0.198l0.235,-0.199l0.236,-0.197l0.236,-0.197l0.237,-0.196l0.238,-0.195l0.238,-0.195l0.238,-0.194l0.239,-0.193l0.24,-0.193l0.241,-0.192l0.241,-0.191l0.241,-0.191l0.242,-0.189l0.243,-0.189l0.243,-0.189l0.244,-0.187l0.245,-0.187l0.245,-0.186l0.246,-0.186l0.246,-0.185l0.247,-0.184l0.247,-0.183l0.248,-0.183l0.248,-0.181l0.249,-0.182l0.25,-0.18l0.25,-0.18l0.251,-0.178l0.251,-0.179l0.252,-0.177l0.252,-0.177l0.253,-0.176l0.254,-0.175l0.254,-0.175l0.254,-0.173l0.256,-0.173l0.255,-0.173l0.257,-0.171l0.256,-0.171l0.258,-0.17l0.258,-0.169l0.258,-0.169l0.259,-0.167l0.259,-0.167l0.26,-0.166l0.261,-0.166l0.261,-0.165l0.262,-0.163l0.262,-0.164l0.262,-0.162l0.264,-0.162l0.263,-0.161l0.265,-0.16l0.264,-0.159l0.266,-0.158l0.265,-0.158l0.267,-0.157l0.266,-0.156l0.268,-0.156l0.268,-0.154l0.268,-0.154l0.269,-0.153l0.269,-0.152l0.27,-0.152l0.27,-0.151l0.271,-0.149l0.271,-0.15l0.272,-0.148l0.273,-0.147l0.273,-0.147l0.273,-0.146l0.274,-0.145l0.274,-0.144l0.275,-0.144l0.275,-0.142l0.276,-0.142l0.276,-0.141l0.277,-0.141l0.277,-0.139l0.278,-0.139l0.278,-0.137l0.279,-0.137l0.279,-0.136l0.279,-0.136l0.28,-0.134l0.281,-0.134l0.281,-0.133l0.281,-0.132l0.282,-0.131l0.283,-0.13l0.282,-0.13l0.284,-0.129l0.283,-0.128l0.285,-0.127l0.284,-0.126l0.285,-0.125l0.286,-0.125l0.286,-0.123l0.287,-0.123l0.286,-0.122l0.288,-0.121l0.288,-0.12l0.288,-0.12l0.289,-0.118l0.289,-0.118l0.289,-0.117l0.29,-0.116l0.291,-0.115l0.291,-0.114l0.291,-0.114l0.292,-0.112l0.292,-0.112l0.292,-0.111l0.293,-0.11l0.294,-0.109l0.294,-0.108l0.294,-0.107l0.295,-0.107l0.295,-0.105l0.295,-0.105l0.296,-0.104l0.297,-0.103l0.296,-0.102l0.298,-0.101l0.297,-0.1l0.298,-0.1l0.299,-0.098l0.298,-0.098l0.3,-0.096l0.299,-0.096l0.3,-0.095l0.3,-0.094l0.301,-0.093l0.301,-0.093l0.302,-0.091l0.302,-0.09l0.302,-0.09l0.303,-0.088l0.303,-0.088l0.304,-0.087l0.304,-0.086l0.304,-0.085l0.304,-0.084l0.305,-0.083l0.306,-0.082l0.306,-0.081l0.306,-0.081l0.306,-0.079l0.307,-0.079l0.307,-0.077l0.308,-0.077l0.308,-0.076l0.308,-0.075l0.309,-0.073l0.309,-0.073l0.31,-0.072l0.309,-0.071l0.31,-0.071l0.311,-0.069l0.311,-0.068l0.311,-0.067l0.312,-0.067l0.311,-0.065l0.313,-0.065l0.312,-0.063l0.313,-0.063l0.313,-0.061l0.314,-0.061l0.314,-0.06l0.314,-0.058l0.315,-0.058l0.315,-0.057l0.315,-0.056l0.316,-0.055l0.316,-0.054l0.316,-0.053l0.316,-0.052l0.317,-0.051l0.318,-0.05l0.317,-0.049l0.318,-0.048l0.318,-0.047l0.319,-0.046l0.319,-0.046l0.319,-0.044l0.319,-0.043l0.32,-0.042l0.32,-0.041l0.32,-0.041l0.321,-0.039l0.321,-0.038l0.321,-0.038l0.322,-0.036l0.322,-0.035l0.322,-0.034l0.322,-0.034l0.323,-0.032l0.323,-0.031l0.324,-0.031l0.323,-0.029l0.324,-0.028l0.324,-0.028l0.325,-0.026l0.325,-0.025l0.325,-0.024l0.325,-0.024l0.326,-0.022l0.326,-0.021l0.326,-0.02l0.326,-0.019l0.327,-0.019l0.327,-0.017l0.327,-0.016l0.328,-0.015l0.327,-0.014l0.328,-0.013l0.329,-0.012l0.328,-0.011l0.329,-0.01l0.329,-0.009l0.33,-0.007l0.329,-0.007l0.33,-0.006l0.33,-0.005l0.33,-0.003l0.331,-0.003l0.331,-0.001l0.331,-0.001l933.16,0l0.331,0.001Zm-933.478,15.999l-0.293,0l-0.28,0.002l-0.28,0.002l-0.28,0.003l-0.279,0.004l-0.279,0.005l-0.279,0.006l-0.279,0.006l-0.278,0.008l-0.278,0.008l-0.278,0.009l-0.278,0.011l-0.277,0.011l-0.278,0.011l-0.276,0.013l-0.277,0.014l-0.276,0.014l-0.277,0.016l-0.275,0.016l-0.276,0.017l-0.275,0.018l-0.275,0.019l-0.275,0.019l-0.275,0.021l-0.274,0.021l-0.274,0.022l-0.274,0.023l-0.274,0.024l-0.273,0.025l-0.273,0.025l-0.273,0.027l-0.272,0.027l-0.272,0.028l-0.272,0.029l-0.272,0.03l-0.271,0.031l-0.271,0.031l-0.271,0.032l-0.271,0.034l-0.27,0.033l-0.27,0.035l-0.27,0.036l-0.269,0.036l-0.269,0.038l-0.269,0.038l-0.269,0.039l-0.268,0.039l-0.268,0.041l-0.268,0.041l-0.268,0.043l-0.267,0.043l-0.267,0.044l-0.266,0.044l-0.267,0.046l-0.266,0.046l-0.266,0.047l-0.265,0.048l-0.265,0.049l-0.265,0.049l-0.265,0.051l-0.264,0.051l-0.264,0.052l-0.264,0.052l-0.263,0.054l-0.263,0.054l-0.263,0.055l-0.263,0.056l-0.262,0.057l-0.262,0.058l-0.262,0.058l-0.261,0.059l-0.261,0.06l-0.261,0.06l-0.26,0.062l-0.26,0.062l-0.26,0.063l-0.26,0.064l-0.259,0.065l-0.259,0.065l-0.258,0.066l-0.258,0.067l-0.258,0.068l-0.258,0.068l-0.257,0.07l-0.257,0.07l-0.257,0.07l-0.256,0.072l-0.256,0.072l-0.256,0.073l-0.255,0.074l-0.255,0.075l-0.255,0.075l-0.254,0.077l-0.254,0.077l-0.254,0.077l-0.254,0.079l-0.253,0.079l-0.252,0.08l-0.253,0.081l-0.252,0.081l-0.252,0.082l-0.251,0.083l-0.251,0.084l-0.251,0.085l-0.25,0.085l-0.25,0.086l-0.25,0.086l-0.249,0.088l-0.249,0.088l-0.249,0.089l-0.248,0.09l-0.248,0.09l-0.248,0.091l-0.247,0.092l-0.247,0.093l-0.246,0.093l-0.247,0.094l-0.245,0.095l-0.246,0.096l-0.245,0.096l-0.245,0.097l-0.244,0.098l-0.244,0.098l-0.244,0.099l-0.243,0.1l-0.243,0.101l-0.243,0.101l-0.242,0.102l-0.242,0.103l-0.241,0.104l-0.241,0.104l-0.241,0.105l-0.24,0.106l-0.24,0.106l-0.24,0.107l-0.239,0.108l-0.239,0.108l-0.238,0.11l-0.238,0.109l-0.238,0.111l-0.237,0.111l-0.237,0.112l-0.237,0.113l-0.236,0.113l-0.236,0.115l-0.235,0.114l-0.235,0.116l-0.234,0.116l-0.235,0.117l-0.233,0.118l-0.234,0.118l-0.233,0.119l-0.232,0.119l-0.233,0.121l-0.231,0.121l-0.232,0.121l-0.231,0.123l-0.23,0.123l-0.23,0.124l-0.23,0.124l-0.229,0.125l-0.229,0.126l-0.229,0.126l-0.228,0.127l-0.227,0.128l-0.228,0.129l-0.226,0.129l-0.227,0.129l-0.226,0.131l-0.225,0.131l-0.225,0.132l-0.225,0.132l-0.224,0.133l-0.224,0.134l-0.224,0.135l-0.223,0.135l-0.222,0.135l-0.222,0.137l-0.222,0.137l-0.221,0.137l-0.221,0.139l-0.22,0.139l-0.22,0.139l-0.22,0.141l-0.219,0.141l-0.218,0.141l-0.218,0.143l-0.218,0.142l-0.217,0.144l-0.217,0.144l-0.216,0.145l-0.216,0.145l-0.216,0.146l-0.215,0.147l-0.214,0.147l-0.214,0.148l-0.214,0.149l-0.213,0.149l-0.212,0.15l-0.213,0.15l-0.211,0.151l-0.212,0.152l-0.21,0.152l-0.211,0.153l-0.21,0.154l-0.209,0.154l-0.209,0.155l-0.208,0.155l-0.208,0.156l-0.208,0.157l-0.207,0.157l-0.206,0.158l-0.206,0.159l-0.206,0.159l-0.205,0.159l-0.204,0.161l-0.204,0.16l-0.204,0.162l-0.203,0.162l-0.202,0.163l-0.202,0.163l-0.202,0.164l-0.201,0.164l-0.201,0.165l-0.2,0.166l-0.199,0.166l-0.199,0.167l-0.199,0.168l-0.198,0.168l-0.198,0.168l-0.197,0.169l-0.196,0.17l-0.196,0.17l-0.196,0.171l-0.195,0.172l-0.194,0.172l-0.194,0.173l-0.194,0.173l-0.192,0.174l-0.193,0.174l-0.192,0.175l-0.191,0.175l-0.191,0.176l-0.19,0.177l-0.19,0.177l-0.189,0.178l-0.189,0.178l-0.188,0.179l-0.188,0.18l-0.187,0.18l-0.186,0.18l-0.186,0.181l-0.186,0.182l-0.185,0.182l-0.184,0.183l-0.184,0.183l-0.183,0.184l-0.183,0.184l-0.182,0.185l-0.182,0.186l-0.181,0.186l-0.18,0.186l-0.18,0.187l-0.18,0.188l-0.179,0.188l-0.178,0.189l-0.178,0.189l-0.177,0.19l-0.177,0.19l-0.176,0.191l-0.175,0.191l-0.175,0.192l-0.174,0.193l-0.174,0.192l-0.173,0.194l-0.173,0.194l-0.172,0.194l-0.172,0.195l-0.171,0.196l-0.17,0.196l-0.17,0.196l-0.169,0.197l-0.168,0.198l-0.168,0.198l-0.168,0.199l-0.167,0.199l-0.166,0.199l-0.166,0.2l-0.165,0.201l-0.164,0.201l-0.164,0.202l-0.163,0.202l-0.163,0.202l-0.162,0.203l-0.162,0.204l-0.16,0.204l-0.161,0.204l-0.159,0.205l-0.159,0.206l-0.159,0.206l-0.158,0.206l-0.157,0.207l-0.157,0.208l-0.156,0.208l-0.155,0.208l-0.155,0.209l-0.154,0.209l-0.154,0.21l-0.153,0.211l-0.152,0.21l-0.152,0.212l-0.151,0.211l-0.15,0.213l-0.15,0.212l-0.149,0.213l-0.149,0.214l-0.148,0.214l-0.147,0.214l-0.147,0.215l-0.146,0.216l-0.145,0.216l-0.145,0.216l-0.144,0.217l-0.144,0.217l-0.142,0.218l-0.143,0.218l-0.141,0.218l-0.141,0.219l-0.141,0.22l-0.139,0.22l-0.139,0.22l-0.139,0.221l-0.137,0.221l-0.137,0.222l-0.137,0.222l-0.135,0.222l-0.135,0.223l-0.135,0.224l-0.134,0.224l-0.133,0.224l-0.132,0.225l-0.132,0.225l-0.131,0.225l-0.131,0.226l-0.129,0.227l-0.129,0.226l-0.129,0.228l-0.128,0.227l-0.127,0.228l-0.126,0.229l-0.126,0.229l-0.125,0.229l-0.124,0.23l-0.124,0.23l-0.123,0.23l-0.123,0.231l-0.121,0.232l-0.121,0.231l-0.121,0.233l-0.119,0.232l-0.119,0.233l-0.118,0.234l-0.118,0.233l-0.117,0.235l-0.116,0.234l-0.116,0.235l-0.114,0.235l-0.115,0.236l-0.113,0.236l-0.113,0.237l-0.112,0.237l-0.111,0.237l-0.111,0.238l-0.109,0.238l-0.11,0.238l-0.108,0.239l-0.108,0.239l-0.107,0.24l-0.106,0.24l-0.106,0.24l-0.105,0.241l-0.104,0.241l-0.104,0.241l-0.103,0.242l-0.102,0.242l-0.101,0.243l-0.101,0.243l-0.1,0.243l-0.099,0.244l-0.098,0.244l-0.098,0.244l-0.097,0.245l-0.096,0.245l-0.096,0.246l-0.095,0.245l-0.094,0.247l-0.093,0.246l-0.093,0.247l-0.092,0.247l-0.091,0.248l-0.09,0.248l-0.09,0.248l-0.089,0.249l-0.088,0.249l-0.088,0.249l-0.086,0.25l-0.086,0.25l-0.085,0.25l-0.085,0.251l-0.084,0.251l-0.083,0.251l-0.082,0.252l-0.081,0.252l-0.081,0.253l-0.08,0.252l-0.079,0.253l-0.079,0.254l-0.077,0.254l-0.077,0.254l-0.077,0.254l-0.075,0.255l-0.075,0.255l-0.074,0.255l-0.073,0.256l-0.072,0.256l-0.072,0.256l-0.07,0.257l-0.07,0.257l-0.07,0.257l-0.068,0.258l-0.068,0.258l-0.067,0.258l-0.066,0.258l-0.065,0.259l-0.065,0.259l-0.064,0.26l-0.063,0.26l-0.062,0.26l-0.062,0.26l-0.06,0.261l-0.06,0.261l-0.059,0.261l-0.058,0.262l-0.058,0.262l-0.057,0.262l-0.056,0.263l-0.055,0.263l-0.054,0.263l-0.054,0.263l-0.052,0.264l-0.052,0.264l-0.051,0.264l-0.051,0.265l-0.049,0.265l-0.049,0.265l-0.048,0.265l-0.047,0.266l-0.046,0.266l-0.046,0.267l-0.044,0.266l-0.044,0.267l-0.043,0.267l-0.043,0.268l-0.041,0.268l-0.041,0.268l-0.039,0.268l-0.039,0.269l-0.038,0.269l-0.038,0.269l-0.036,0.269l-0.036,0.27l-0.035,0.27l-0.033,0.27l-0.034,0.271l-0.032,0.271l-0.031,0.271l-0.031,0.271l-0.03,0.272l-0.029,0.272l-0.028,0.272l-0.027,0.272l-0.027,0.273l-0.025,0.273l-0.025,0.273l-0.024,0.274l-0.023,0.274l-0.022,0.274l-0.021,0.274l-0.021,0.275l-0.019,0.275l-0.019,0.275l-0.018,0.275l-0.017,0.276l-0.016,0.275l-0.016,0.277l-0.014,0.276l-0.014,0.277l-0.013,0.276l-0.011,0.278l-0.011,0.277l-0.011,0.278l-0.009,0.278l-0.008,0.278l-0.008,0.278l-0.006,0.279l-0.006,0.279l-0.005,0.279l-0.004,0.279l-0.003,0.28l-0.002,0.28l-0.002,0.28l0,0.293l0,2249.13l0,0.293l0.002,0.28l0.002,0.28l0.003,0.28l0.004,0.279l0.005,0.279l0.006,0.279l0.006,0.279l0.008,0.278l0.008,0.278l0.009,0.278l0.011,0.278l0.011,0.277l0.011,0.277l0.013,0.278l0.014,0.276l0.014,0.276l0.016,0.277l0.016,0.275l0.017,0.276l0.018,0.275l0.019,0.275l0.019,0.275l0.021,0.275l0.021,0.275l0.022,0.273l0.023,0.274l0.024,0.273l0.025,0.274l0.025,0.273l0.027,0.272l0.027,0.273l0.028,0.272l0.029,0.272l0.03,0.272l0.031,0.271l0.031,0.271l0.032,0.271l0.033,0.27l0.034,0.271l0.035,0.27l0.036,0.27l0.036,0.269l0.038,0.269l0.038,0.269l0.039,0.269l0.039,0.268l0.041,0.268l0.042,0.269l0.042,0.267l0.043,0.266l0.044,0.268l0.044,0.267l0.046,0.266l0.046,0.266l0.047,0.265l0.048,0.266l0.049,0.265l0.049,0.265l0.05,0.264l0.052,0.264l0.052,0.265l0.052,0.264l0.054,0.263l0.054,0.264l0.055,0.263l0.056,0.262l0.057,0.262l0.058,0.262l0.058,0.262l0.059,0.261l0.06,0.261l0.06,0.26l0.062,0.262l0.062,0.26l0.063,0.259l0.064,0.259l0.065,0.261l0.065,0.259l0.066,0.257l0.067,0.258l0.068,0.258l0.068,0.257l0.07,0.259l0.07,0.258l0.07,0.255l0.072,0.255l0.072,0.257l0.074,0.257l0.073,0.253l0.075,0.257l0.075,0.254l0.077,0.254l0.077,0.255l0.077,0.252l0.079,0.256l0.079,0.252l0.079,0.251l0.082,0.254l0.081,0.253l0.082,0.251l0.083,0.251l0.084,0.25l0.084,0.251l0.086,0.252l0.085,0.248l0.087,0.251l0.088,0.25l0.089,0.25l0.088,0.247l0.089,0.247l0.091,0.249l0.091,0.247l0.092,0.248l0.093,0.248l0.093,0.245l0.095,0.247l0.094,0.245l0.095,0.245l0.097,0.246l0.097,0.246l0.098,0.243l0.098,0.243l0.1,0.245l0.099,0.243l0.101,0.242l0.101,0.244l0.103,0.243l0.103,0.242l0.103,0.24l0.104,0.241l0.104,0.239l0.107,0.242l0.106,0.24l0.108,0.241l0.107,0.239l0.108,0.238l0.109,0.238l0.11,0.237l0.111,0.24l0.112,0.237l0.111,0.236l0.113,0.236l0.113,0.236l0.114,0.236l0.116,0.237l0.115,0.235l0.116,0.234l0.117,0.234l0.116,0.231l0.12,0.236l0.12,0.235l0.118,0.23l0.12,0.232l0.121,0.232l0.122,0.231l0.123,0.231l0.123,0.231l0.123,0.23l0.125,0.23l0.125,0.229l0.126,0.229l0.127,0.229l0.125,0.226l0.13,0.231l0.128,0.227l0.128,0.225l0.13,0.227l0.131,0.226l0.131,0.226l0.131,0.223l0.133,0.225l0.135,0.228l0.132,0.222l0.133,0.221l0.136,0.224l0.136,0.223l0.137,0.223l0.138,0.222l0.136,0.22l0.139,0.221l0.14,0.222l0.138,0.218l0.141,0.22l0.14,0.217l0.142,0.22l0.143,0.219l0.142,0.216l0.144,0.219l0.143,0.215l0.146,0.217l0.146,0.218l0.145,0.214l0.146,0.213l0.148,0.216l0.149,0.216l0.148,0.212l0.148,0.212l0.151,0.214l0.152,0.214l0.148,0.207l0.153,0.213l0.154,0.213l0.152,0.209l0.152,0.209l0.154,0.208l0.156,0.211l0.155,0.207l0.157,0.21l0.156,0.207l0.157,0.206l0.159,0.209l0.156,0.202l0.161,0.208l0.161,0.207l0.158,0.201l0.16,0.203l0.163,0.206l0.162,0.203l0.162,0.202l0.163,0.201l0.164,0.201l0.166,0.204l0.165,0.201l0.166,0.199l0.166,0.2l0.166,0.198l0.167,0.199l0.168,0.198l0.169,0.197l0.169,0.197l0.172,0.2l0.168,0.193l0.171,0.195l0.174,0.198l0.169,0.192l0.173,0.194l0.174,0.193l0.174,0.194l0.174,0.192l0.175,0.192l0.176,0.192l0.174,0.188l0.177,0.191l0.177,0.19l0.179,0.19l0.178,0.189l0.18,0.189l0.18,0.188l0.178,0.185l0.181,0.187l0.182,0.187l0.179,0.183l0.183,0.186l0.187,0.188l0.181,0.182l0.181,0.181l0.186,0.184l0.186,0.183l0.186,0.183l0.184,0.179l0.185,0.178l0.188,0.181l0.189,0.181l0.19,0.18l0.186,0.177l0.188,0.176l0.194,0.181l0.189,0.175l0.189,0.175l0.193,0.177l0.19,0.173l0.194,0.176l0.195,0.176l0.192,0.171l0.192,0.172l0.193,0.17l0.197,0.173l0.198,0.173l0.194,0.169l0.196,0.169l0.195,0.168l0.2,0.171l0.201,0.17l0.193,0.163l0.198,0.166l0.206,0.171l0.199,0.165l0.2,0.164l0.2,0.164l0.2,0.163l0.205,0.166l0.202,0.162l0.202,0.161l0.203,0.161l0.203,0.16l0.208,0.163l0.204,0.159l0.205,0.159l0.206,0.158l0.206,0.157l0.206,0.157l0.207,0.156l0.212,0.159l0.208,0.155l0.209,0.155l0.205,0.151l0.209,0.153l0.215,0.156l0.21,0.153l0.212,0.151l0.211,0.151l0.213,0.151l0.208,0.147l0.214,0.149l0.218,0.152l0.214,0.148l0.211,0.145l0.215,0.147l0.22,0.149l0.213,0.143l0.212,0.142l0.222,0.148l0.218,0.144l0.214,0.14l0.219,0.143l0.22,0.142l0.22,0.142l0.22,0.141l0.217,0.138l0.217,0.136l0.226,0.142l0.223,0.139l0.218,0.135l0.224,0.137l0.219,0.134l0.225,0.136l0.225,0.136l0.221,0.131l0.226,0.135l0.226,0.133l0.222,0.13l0.228,0.132l0.228,0.132l0.224,0.128l0.224,0.128l0.229,0.13l0.23,0.129l0.226,0.126l0.226,0.125l0.231,0.127l0.232,0.126l0.228,0.124l0.228,0.122l0.233,0.125l0.234,0.124l0.225,0.118l0.234,0.122l0.236,0.122l0.225,0.116l0.237,0.121l0.236,0.12l0.232,0.117l0.233,0.116l0.233,0.115l0.239,0.117l0.233,0.115l0.235,0.113l0.24,0.115l0.235,0.112l0.231,0.109l0.241,0.114l0.242,0.112l0.232,0.107l0.243,0.111l0.238,0.109l0.238,0.107l0.239,0.107l0.239,0.106l0.245,0.108l0.235,0.102l0.241,0.104l0.246,0.106l0.242,0.102l0.242,0.102l0.242,0.102l0.238,0.098l0.243,0.1l0.249,0.101l0.244,0.099l0.245,0.098l0.245,0.097l0.24,0.094l0.246,0.096l0.252,0.097l0.241,0.092l0.247,0.094l0.253,0.095l0.243,0.09l0.243,0.089l0.249,0.091l0.254,0.092l0.25,0.089l0.245,0.087l0.245,0.086l0.251,0.087l0.257,0.088l0.246,0.084l0.246,0.083l0.259,0.086l0.253,0.084l0.248,0.081l0.248,0.08l0.254,0.082l0.255,0.08l0.255,0.08l0.25,0.077l0.256,0.079l0.256,0.077l0.251,0.076l0.251,0.074l0.258,0.075l0.258,0.075l0.252,0.072l0.259,0.073l0.254,0.071l0.259,0.072l0.254,0.069l0.255,0.068l0.266,0.071l0.256,0.067l0.255,0.067l0.262,0.067l0.257,0.065l0.257,0.064l0.257,0.063l0.263,0.064l0.264,0.063l0.259,0.061l0.258,0.06l0.26,0.06l0.259,0.058l0.266,0.059l0.266,0.059l0.261,0.056l0.261,0.056l0.261,0.055l0.262,0.054l0.262,0.053l0.269,0.054l0.263,0.052l0.263,0.05l0.264,0.051l0.264,0.049l0.27,0.05l0.265,0.047l0.259,0.046l0.265,0.046l0.272,0.047l0.266,0.044l0.267,0.044l0.267,0.043l0.273,0.043l0.268,0.042l0.262,0.039l0.268,0.04l0.269,0.039l0.269,0.038l0.269,0.038l0.27,0.036l0.27,0.036l0.271,0.035l0.271,0.034l0.265,0.032l0.272,0.032l0.277,0.033l0.267,0.03l0.272,0.03l0.273,0.029l0.274,0.028l0.273,0.027l0.268,0.026l0.275,0.026l0.274,0.025l0.275,0.024l0.27,0.023l0.275,0.022l0.276,0.021l0.271,0.021l0.276,0.019l0.277,0.019l0.278,0.018l0.272,0.017l0.278,0.016l0.278,0.016l0.273,0.014l0.273,0.014l0.279,0.012l0.28,0.012l0.274,0.011l0.28,0.011l0.281,0.009l0.275,0.008l0.276,0.008l0.281,0.006l0.276,0.006l0.283,0.005l0.282,0.004l0.271,0.003l0.283,0.002l0.284,0.002l0.29,0l933.136,0l0.29,0l0.284,-0.002l0.283,-0.002l0.271,-0.003l0.283,-0.004l0.282,-0.005l0.276,-0.006l0.282,-0.006l0.275,-0.008l0.275,-0.008l0.281,-0.009l0.28,-0.011l0.274,-0.011l0.28,-0.012l0.279,-0.012l0.273,-0.014l0.273,-0.014l0.278,-0.016l0.278,-0.016l0.272,-0.017l0.278,-0.018l0.277,-0.019l0.276,-0.019l0.271,-0.021l0.275,-0.021l0.276,-0.022l0.27,-0.023l0.275,-0.024l0.274,-0.025l0.275,-0.026l0.268,-0.026l0.273,-0.027l0.274,-0.028l0.273,-0.029l0.272,-0.03l0.267,-0.03l0.277,-0.033l0.272,-0.032l0.265,-0.032l0.271,-0.034l0.271,-0.035l0.27,-0.036l0.269,-0.036l0.27,-0.038l0.269,-0.038l0.269,-0.039l0.268,-0.04l0.262,-0.039l0.268,-0.042l0.273,-0.043l0.267,-0.043l0.267,-0.044l0.266,-0.044l0.271,-0.047l0.266,-0.046l0.26,-0.046l0.264,-0.047l0.27,-0.05l0.265,-0.049l0.263,-0.051l0.263,-0.05l0.263,-0.052l0.269,-0.054l0.262,-0.053l0.262,-0.054l0.261,-0.055l0.261,-0.056l0.261,-0.056l0.266,-0.059l0.266,-0.059l0.26,-0.058l0.258,-0.06l0.259,-0.06l0.259,-0.061l0.264,-0.063l0.263,-0.064l0.257,-0.063l0.257,-0.064l0.257,-0.065l0.262,-0.067l0.255,-0.067l0.256,-0.067l0.266,-0.071l0.254,-0.068l0.255,-0.069l0.26,-0.072l0.253,-0.071l0.258,-0.073l0.253,-0.072l0.258,-0.075l0.258,-0.075l0.252,-0.075l0.25,-0.074l0.256,-0.078l0.256,-0.078l0.25,-0.078l0.256,-0.08l0.254,-0.081l0.254,-0.081l0.249,-0.08l0.247,-0.081l0.253,-0.083l0.259,-0.087l0.246,-0.083l0.246,-0.083l0.258,-0.089l0.251,-0.087l0.244,-0.086l0.244,-0.086l0.251,-0.09l0.255,-0.092l0.248,-0.091l0.243,-0.089l0.243,-0.09l0.253,-0.095l0.248,-0.094l0.24,-0.092l0.252,-0.097l0.247,-0.096l0.239,-0.094l0.245,-0.097l0.245,-0.098l0.243,-0.098l0.249,-0.102l0.245,-0.1l0.238,-0.099l0.241,-0.101l0.241,-0.101l0.242,-0.103l0.247,-0.106l0.241,-0.104l0.234,-0.102l0.245,-0.108l0.241,-0.107l0.238,-0.106l0.238,-0.107l0.238,-0.109l0.244,-0.111l0.231,-0.107l0.242,-0.112l0.242,-0.114l0.23,-0.109l0.235,-0.112l0.239,-0.115l0.236,-0.114l0.235,-0.114l0.237,-0.117l0.232,-0.115l0.234,-0.117l0.232,-0.116l0.236,-0.12l0.237,-0.121l0.225,-0.116l0.235,-0.122l0.236,-0.123l0.225,-0.118l0.232,-0.123l0.234,-0.125l0.228,-0.122l0.228,-0.124l0.232,-0.126l0.231,-0.127l0.225,-0.125l0.226,-0.126l0.231,-0.129l0.229,-0.13l0.225,-0.128l0.223,-0.128l0.228,-0.132l0.227,-0.131l0.223,-0.131l0.227,-0.134l0.225,-0.133l0.222,-0.133l0.224,-0.135l0.225,-0.136l0.22,-0.134l0.222,-0.136l0.219,-0.136l0.224,-0.139l0.224,-0.141l0.218,-0.137l0.218,-0.139l0.22,-0.14l0.22,-0.142l0.219,-0.142l0.218,-0.142l0.214,-0.14l0.219,-0.145l0.222,-0.148l0.213,-0.142l0.212,-0.143l0.22,-0.149l0.215,-0.147l0.211,-0.145l0.214,-0.148l0.219,-0.152l0.213,-0.149l0.207,-0.146l0.213,-0.151l0.213,-0.152l0.21,-0.151l0.211,-0.153l0.215,-0.156l0.209,-0.152l0.205,-0.152l0.209,-0.155l0.209,-0.155l0.211,-0.159l0.207,-0.156l0.206,-0.157l0.205,-0.156l0.208,-0.16l0.204,-0.158l0.204,-0.159l0.208,-0.163l0.203,-0.16l0.203,-0.162l0.202,-0.161l0.201,-0.161l0.206,-0.167l0.201,-0.162l0.199,-0.164l0.199,-0.163l0.2,-0.166l0.206,-0.172l0.198,-0.165l0.193,-0.163l0.2,-0.17l0.202,-0.172l0.194,-0.166l0.195,-0.169l0.196,-0.17l0.198,-0.173l0.195,-0.172l0.193,-0.171l0.193,-0.171l0.192,-0.172l0.195,-0.176l0.194,-0.176l0.191,-0.174l0.192,-0.176l0.189,-0.174l0.189,-0.176l0.195,-0.182l0.186,-0.175l0.188,-0.177l0.19,-0.181l0.188,-0.18l0.187,-0.18l0.185,-0.179l0.185,-0.18l0.186,-0.182l0.187,-0.184l0.184,-0.183l0.181,-0.18l0.182,-0.183l0.187,-0.188l0.184,-0.187l0.179,-0.182l0.181,-0.187l0.182,-0.188l0.176,-0.183l0.181,-0.189l0.179,-0.189l0.179,-0.189l0.18,-0.191l0.176,-0.188l0.176,-0.191l0.175,-0.189l0.176,-0.192l0.175,-0.192l0.175,-0.193l0.173,-0.192l0.173,-0.193l0.173,-0.195l0.17,-0.191l0.176,-0.201l0.169,-0.194l0.167,-0.191l0.174,-0.202l0.168,-0.196l0.169,-0.198l0.168,-0.198l0.166,-0.197l0.168,-0.2l0.165,-0.198l0.166,-0.2l0.165,-0.201l0.166,-0.203l0.164,-0.202l0.162,-0.201l0.162,-0.201l0.164,-0.205l0.163,-0.206l0.158,-0.2l0.158,-0.202l0.163,-0.209l0.16,-0.207l0.155,-0.202l0.159,-0.208l0.158,-0.208l0.156,-0.206l0.157,-0.21l0.155,-0.207l0.156,-0.21l0.154,-0.21l0.153,-0.209l0.151,-0.207l0.153,-0.213l0.155,-0.215l0.148,-0.207l0.15,-0.212l0.151,-0.215l0.15,-0.214l0.147,-0.21l0.147,-0.214l0.15,-0.218l0.146,-0.214l0.144,-0.213l0.147,-0.217l0.146,-0.219l0.142,-0.213l0.145,-0.22l0.142,-0.216l0.142,-0.218l0.143,-0.221l0.141,-0.218l0.14,-0.219l0.138,-0.217l0.14,-0.223l0.14,-0.223l0.136,-0.218l0.137,-0.222l0.136,-0.222l0.137,-0.225l0.137,-0.225l0.131,-0.218l0.133,-0.224l0.135,-0.227l0.133,-0.224l0.131,-0.225l0.131,-0.226l0.131,-0.226l0.129,-0.224l0.128,-0.227l0.13,-0.23l0.129,-0.228l0.125,-0.225l0.127,-0.229l0.126,-0.229l0.125,-0.23l0.125,-0.23l0.124,-0.231l0.122,-0.228l0.122,-0.232l0.123,-0.234l0.12,-0.23l0.121,-0.232l0.119,-0.231l0.119,-0.234l0.12,-0.236l0.115,-0.229l0.117,-0.235l0.117,-0.236l0.116,-0.236l0.115,-0.236l0.113,-0.234l0.114,-0.237l0.112,-0.235l0.113,-0.237l0.111,-0.239l0.111,-0.238l0.11,-0.237l0.108,-0.237l0.108,-0.237l0.108,-0.241l0.109,-0.243l0.106,-0.239l0.105,-0.239l0.104,-0.239l0.106,-0.245l0.103,-0.241l0.102,-0.238l0.102,-0.243l0.102,-0.244l0.101,-0.245l0.1,-0.242l0.099,-0.242l0.098,-0.244l0.097,-0.243l0.098,-0.247l0.097,-0.246l0.095,-0.245l0.095,-0.245l0.094,-0.248l0.093,-0.246l0.093,-0.246l0.091,-0.246l0.092,-0.25l0.091,-0.25l0.088,-0.242l0.089,-0.249l0.089,-0.251l0.088,-0.251l0.087,-0.252l0.084,-0.244l0.086,-0.253l0.086,-0.253l0.082,-0.248l0.083,-0.251l0.083,-0.252l0.082,-0.255l0.08,-0.251l0.08,-0.253l0.079,-0.251l0.079,-0.255l0.078,-0.254l0.077,-0.254l0.076,-0.254l0.075,-0.253l0.075,-0.257l0.073,-0.253l0.074,-0.259l0.073,-0.258l0.07,-0.252l0.071,-0.255l0.07,-0.26l0.07,-0.259l0.068,-0.255l0.068,-0.258l0.067,-0.259l0.066,-0.258l0.065,-0.259l0.065,-0.261l0.064,-0.26l0.063,-0.257l0.061,-0.258l0.062,-0.262l0.062,-0.265l0.059,-0.259l0.059,-0.259l0.058,-0.263l0.058,-0.263l0.057,-0.261l0.055,-0.26l0.056,-0.265l0.054,-0.265l0.054,-0.262l0.052,-0.263l0.053,-0.266l0.05,-0.263l0.051,-0.264l0.049,-0.266l0.049,-0.265l0.048,-0.265l0.047,-0.268l0.046,-0.265l0.046,-0.266l0.045,-0.267l0.043,-0.267l0.043,-0.265l0.042,-0.267l0.042,-0.269l0.04,-0.268l0.041,-0.271l0.039,-0.269l0.037,-0.266l0.038,-0.269l0.036,-0.27l0.036,-0.27l0.035,-0.271l0.033,-0.268l0.033,-0.271l0.033,-0.271l0.031,-0.273l0.031,-0.271l0.03,-0.27l0.029,-0.273l0.028,-0.27l0.027,-0.274l0.027,-0.274l0.025,-0.271l0.025,-0.276l0.024,-0.272l0.023,-0.275l0.022,-0.275l0.021,-0.27l0.021,-0.277l0.02,-0.277l0.018,-0.271l0.018,-0.277l0.017,-0.278l0.016,-0.271l0.016,-0.276l0.014,-0.279l0.014,-0.279l0.013,-0.276l0.011,-0.274l0.011,-0.277l0.011,-0.28l0.009,-0.278l0.008,-0.278l0.008,-0.279l0.006,-0.278l0.006,-0.279l0.005,-0.277l0.004,-0.279l0.003,-0.283l0.002,-0.28l0.002,-0.278l0,-0.293l0,-2249.14l0,-0.293l-0.002,-0.278l-0.002,-0.28l-0.003,-0.283l-0.004,-0.279l-0.005,-0.277l-0.006,-0.279l-0.006,-0.279l-0.008,-0.278l-0.008,-0.278l-0.009,-0.278l-0.011,-0.28l-0.011,-0.277l-0.011,-0.274l-0.013,-0.276l-0.014,-0.279l-0.014,-0.279l-0.016,-0.275l-0.016,-0.272l-0.017,-0.278l-0.018,-0.277l-0.018,-0.272l-0.02,-0.276l-0.021,-0.277l-0.021,-0.27l-0.022,-0.275l-0.023,-0.276l-0.024,-0.272l-0.025,-0.274l-0.025,-0.272l-0.027,-0.274l-0.027,-0.273l-0.028,-0.271l-0.029,-0.273l-0.03,-0.269l-0.031,-0.273l-0.031,-0.271l-0.033,-0.272l-0.033,-0.271l-0.033,-0.268l-0.035,-0.271l-0.036,-0.27l-0.036,-0.27l-0.038,-0.269l-0.037,-0.266l-0.039,-0.269l-0.041,-0.271l-0.04,-0.268l-0.042,-0.268l-0.042,-0.267l-0.043,-0.267l-0.043,-0.267l-0.045,-0.266l-0.045,-0.266l-0.047,-0.265l-0.047,-0.268l-0.048,-0.265l-0.049,-0.264l-0.049,-0.267l-0.051,-0.264l-0.051,-0.263l-0.052,-0.266l-0.052,-0.263l-0.054,-0.262l-0.054,-0.265l-0.056,-0.264l-0.055,-0.261l-0.057,-0.261l-0.058,-0.263l-0.058,-0.263l-0.059,-0.259l-0.059,-0.26l-0.062,-0.264l-0.061,-0.262l-0.062,-0.258l-0.063,-0.257l-0.064,-0.26l-0.065,-0.26l-0.065,-0.26l-0.066,-0.259l-0.067,-0.258l-0.068,-0.259l-0.068,-0.254l-0.069,-0.258l-0.071,-0.26l-0.071,-0.256l-0.071,-0.254l-0.072,-0.256l-0.074,-0.258l-0.074,-0.255l-0.074,-0.255l-0.075,-0.254l-0.076,-0.254l-0.077,-0.253l-0.079,-0.256l-0.078,-0.253l-0.079,-0.252l-0.08,-0.255l-0.08,-0.249l-0.082,-0.253l-0.083,-0.254l-0.082,-0.25l-0.084,-0.25l-0.085,-0.252l-0.085,-0.252l-0.085,-0.246l-0.087,-0.251l-0.088,-0.25l-0.089,-0.25l-0.089,-0.25l-0.088,-0.244l-0.091,-0.249l-0.092,-0.251l-0.091,-0.245l-0.092,-0.245l-0.094,-0.247l-0.094,-0.247l-0.095,-0.246l-0.096,-0.246l-0.096,-0.246l-0.097,-0.245l-0.098,-0.244l-0.099,-0.244l-0.098,-0.242l-0.1,-0.243l-0.102,-0.245l-0.101,-0.243l-0.102,-0.242l-0.101,-0.239l-0.104,-0.241l-0.106,-0.246l-0.105,-0.24l-0.104,-0.237l-0.106,-0.239l-0.108,-0.242l-0.109,-0.241l-0.108,-0.238l-0.109,-0.238l-0.109,-0.237l-0.11,-0.236l-0.112,-0.239l-0.113,-0.238l-0.112,-0.236l-0.114,-0.237l-0.113,-0.235l-0.115,-0.233l-0.116,-0.237l-0.116,-0.235l-0.118,-0.235l-0.116,-0.232l-0.119,-0.234l-0.118,-0.232l-0.12,-0.233l-0.121,-0.233l-0.12,-0.23l-0.123,-0.234l-0.123,-0.231l-0.121,-0.229l-0.124,-0.23l-0.125,-0.23l-0.125,-0.23l-0.126,-0.228l-0.126,-0.229l-0.127,-0.228l-0.127,-0.225l-0.13,-0.23l-0.13,-0.229l-0.128,-0.223l-0.13,-0.226l-0.131,-0.225l-0.133,-0.227l-0.132,-0.224l-0.133,-0.224l-0.135,-0.226l-0.133,-0.22l-0.136,-0.225l-0.136,-0.224l-0.136,-0.221l-0.137,-0.221l-0.137,-0.22l-0.139,-0.222l-0.14,-0.221l-0.138,-0.219l-0.14,-0.218l-0.142,-0.22l-0.142,-0.22l-0.141,-0.217l-0.144,-0.218l-0.143,-0.218l-0.144,-0.215l-0.145,-0.217l-0.146,-0.217l-0.145,-0.214l-0.147,-0.215l-0.149,-0.217l-0.146,-0.212l-0.148,-0.212l-0.151,-0.216l-0.149,-0.212l-0.15,-0.211l-0.151,-0.211l-0.153,-0.214l-0.152,-0.21l-0.152,-0.209l-0.153,-0.209l-0.156,-0.211l-0.154,-0.209l-0.155,-0.208l-0.156,-0.208l-0.157,-0.207l-0.158,-0.208l-0.157,-0.206l-0.158,-0.206l-0.159,-0.205l-0.161,-0.206l-0.161,-0.206l-0.159,-0.201l-0.161,-0.203l-0.164,-0.206l-0.162,-0.202l-0.163,-0.201l-0.164,-0.202l-0.164,-0.2l-0.166,-0.202l-0.166,-0.201l-0.165,-0.198l-0.168,-0.2l-0.166,-0.197l-0.168,-0.199l-0.169,-0.198l-0.169,-0.196l-0.171,-0.198l-0.169,-0.195l-0.17,-0.194l-0.173,-0.197l-0.172,-0.195l-0.173,-0.194l-0.174,-0.194l-0.172,-0.191l-0.174,-0.192l-0.175,-0.192l-0.176,-0.191l-0.177,-0.193l-0.177,-0.19l-0.175,-0.188l-0.179,-0.191l-0.178,-0.188l-0.179,-0.188l-0.181,-0.189l-0.178,-0.185l-0.181,-0.188l-0.181,-0.185l-0.181,-0.185l-0.183,-0.186l-0.183,-0.184l-0.184,-0.185l-0.183,-0.182l-0.184,-0.182l-0.185,-0.183l-0.185,-0.181l-0.187,-0.182l-0.187,-0.181l-0.186,-0.18l-0.187,-0.178l-0.189,-0.18l-0.189,-0.178l-0.188,-0.177l-0.191,-0.178l-0.19,-0.177l-0.191,-0.176l-0.191,-0.175l-0.192,-0.175l-0.192,-0.174l-0.194,-0.174l-0.193,-0.174l-0.194,-0.173l-0.195,-0.172l-0.193,-0.17l-0.196,-0.171l-0.198,-0.172l-0.196,-0.169l-0.195,-0.168l-0.199,-0.17l-0.198,-0.168l-0.199,-0.167l-0.198,-0.166l-0.2,-0.166l-0.201,-0.167l-0.2,-0.165l-0.201,-0.164l-0.201,-0.164l-0.203,-0.164l-0.202,-0.162l-0.203,-0.162l-0.204,-0.162l-0.204,-0.16l-0.205,-0.161l-0.204,-0.159l-0.205,-0.159l-0.208,-0.16l-0.206,-0.157l-0.206,-0.157l-0.208,-0.157l-0.207,-0.155l-0.209,-0.156l-0.209,-0.155l-0.21,-0.155l-0.209,-0.152l-0.211,-0.154l-0.211,-0.152l-0.21,-0.151l-0.213,-0.152l-0.212,-0.151l-0.212,-0.149l-0.213,-0.149l-0.214,-0.149l-0.214,-0.148l-0.214,-0.147l-0.215,-0.147l-0.216,-0.146l-0.215,-0.145l-0.217,-0.145l-0.216,-0.144l-0.219,-0.144l-0.217,-0.143l-0.218,-0.142l-0.218,-0.141l-0.219,-0.141l-0.219,-0.14l-0.221,-0.14l-0.221,-0.14l-0.219,-0.137l-0.222,-0.138l-0.223,-0.138l-0.22,-0.135l-0.223,-0.136l-0.224,-0.136l-0.222,-0.134l-0.225,-0.134l-0.223,-0.133l-0.226,-0.132l-0.225,-0.132l-0.225,-0.131l-0.226,-0.131l-0.226,-0.129l-0.227,-0.129l-0.228,-0.129l-0.228,-0.128l-0.228,-0.127l-0.227,-0.126l-0.23,-0.126l-0.229,-0.125l-0.23,-0.125l-0.23,-0.123l-0.231,-0.123l-0.229,-0.122l-0.232,-0.122l-0.233,-0.122l-0.232,-0.12l-0.232,-0.119l-0.233,-0.119l-0.233,-0.118l-0.234,-0.118l-0.235,-0.117l-0.234,-0.116l-0.234,-0.115l-0.236,-0.115l-0.237,-0.115l-0.236,-0.113l-0.236,-0.113l-0.236,-0.111l-0.238,-0.112l-0.237,-0.11l-0.238,-0.11l-0.239,-0.11l-0.239,-0.108l-0.239,-0.108l-0.239,-0.107l-0.242,-0.107l-0.239,-0.105l-0.24,-0.105l-0.242,-0.104l-0.242,-0.104l-0.242,-0.103l-0.241,-0.102l-0.242,-0.101l-0.243,-0.1l-0.245,-0.101l-0.244,-0.099l-0.243,-0.098l-0.244,-0.098l-0.245,-0.097l-0.244,-0.096l-0.247,-0.096l-0.246,-0.095l-0.245,-0.093l-0.247,-0.094l-0.247,-0.093l-0.247,-0.092l-0.248,-0.091l-0.248,-0.09l-0.248,-0.09l-0.249,-0.089l-0.249,-0.088l-0.248,-0.087l-0.251,-0.087l-0.25,-0.086l-0.25,-0.086l-0.251,-0.084l-0.251,-0.084l-0.251,-0.083l-0.252,-0.082l-0.252,-0.081l-0.252,-0.081l-0.253,-0.08l-0.253,-0.079l-0.254,-0.079l-0.254,-0.078l-0.254,-0.076l-0.253,-0.076l-0.256,-0.076l-0.255,-0.075l-0.255,-0.074l-0.256,-0.073l-0.256,-0.072l-0.255,-0.071l-0.258,-0.071l-0.257,-0.071l-0.257,-0.069l-0.257,-0.068l-0.258,-0.068l-0.259,-0.067l-0.258,-0.066l-0.259,-0.065l-0.259,-0.065l-0.26,-0.064l-0.26,-0.063l-0.26,-0.062l-0.261,-0.062l-0.26,-0.06l-0.261,-0.06l-0.261,-0.059l-0.262,-0.058l-0.262,-0.058l-0.262,-0.057l-0.263,-0.056l-0.262,-0.055l-0.263,-0.054l-0.264,-0.054l-0.264,-0.052l-0.264,-0.052l-0.264,-0.051l-0.264,-0.051l-0.266,-0.049l-0.265,-0.049l-0.265,-0.048l-0.266,-0.047l-0.267,-0.046l-0.266,-0.046l-0.266,-0.044l-0.267,-0.044l-0.267,-0.043l-0.268,-0.043l-0.268,-0.041l-0.268,-0.041l-0.268,-0.039l-0.269,-0.039l-0.269,-0.038l-0.269,-0.038l-0.269,-0.036l-0.27,-0.036l-0.27,-0.034l-0.27,-0.034l-0.271,-0.034l-0.271,-0.032l-0.271,-0.031l-0.271,-0.031l-0.272,-0.03l-0.272,-0.029l-0.272,-0.028l-0.272,-0.027l-0.273,-0.027l-0.273,-0.025l-0.273,-0.025l-0.274,-0.024l-0.274,-0.023l-0.274,-0.022l-0.274,-0.021l-0.275,-0.021l-0.274,-0.019l-0.275,-0.019l-0.276,-0.018l-0.276,-0.017l-0.276,-0.016l-0.276,-0.016l-0.276,-0.014l-0.277,-0.014l-0.277,-0.013l-0.277,-0.011l-0.277,-0.011l-0.278,-0.011l-0.277,-0.009l-0.279,-0.008l-0.278,-0.008l-0.279,-0.006l-0.279,-0.006l-0.279,-0.005l-0.279,-0.004l-0.28,-0.003l-0.28,-0.002l-0.28,-0.002l-0.293,0l-933.134,0Z" style="fill:#595959;"/><rect x="1138" y="493.878" width="8" height="284.401" style="fill:#404040;"/><rect x="1138" y="895.49" width="8" height="124.204" style="fill:#404040;"/><rect x="461.3" y="2438" width="16" height="16" style="fill:#404040;"/><rect x="668.829" y="2438" width="16" height="16" style="fill:#404040;"/></svg>