<?xml version="1.0" encoding="UTF-8" standalone="no"?><!DOCTYPE svg PUBLIC "-//W3C//DTD SVG 1.1//EN" "http://www.w3.org/Graphics/SVG/1.1/DTD/svg11.dtd"><svg width="100%" height="100%" viewBox="0 0 1080 2340" version="1.1" xmlns="http://www.w3.org/2000/svg" xmlns:xlink="http://www.w3.org/1999/xlink" xml:space="preserve" xmlns:serif="http://www.serif.com/" style="fill-rule:evenodd;clip-rule:evenodd;stroke-linejoin:round;stroke-miterlimit:2;"><path d="M81.803,0.002c0,0 -40.155,0.724 -60.344,20.872c-21.928,21.885 -21.459,47.737 -21.459,47.737l0,-68.611l81.803,0.002Z" style="fill:#1a1a1a;"/><path d="M998.692,-0.005c0,0 39.66,0.731 59.849,20.879c21.928,21.885 21.461,47.735 21.461,47.735l-0.002,-68.609l-81.308,-0.005Z" style="fill:#1a1a1a;"/><path d="M479.968,0l119.504,0c-9.867,0.427 -12.058,9.911 -15.012,28.839c-2.55,16.343 -20.286,33.674 -44.443,33.777c-27.249,0.116 -41.903,-16.965 -44.839,-33.58c-3.113,-17.617 -5.578,-26.628 -15.21,-29.036" style="fill:#1a1a1a;"/><path d="M81.806,2339.99c0,0 -40.158,-0.721 -60.347,-20.869c-21.928,-21.885 -21.459,-47.722 -21.459,-47.722l0,68.596l81.806,-0.005Z" style="fill:#1a1a1a;"/><path d="M998.194,2339.99c0,0 40.157,-0.721 60.346,-20.869c21.928,-21.885 21.459,-47.722 21.459,-47.722l0,68.596l-81.805,-0.005Z" style="fill:#1a1a1a;"/><path d="M12.74,0.007c0,0 -2.972,2.758 -6.666,7.235c-3.137,3.801 -6.073,8.552 -6.073,8.552l-0.001,-15.794l12.74,0.007Z" style="fill:#595959;"/><path d="M1064.21,0.009c0,0 3.684,3.755 8.261,9.85c3.888,5.175 7.526,11.643 7.526,11.643l0.002,-21.502l-15.789,0.009Z" style="fill:#595959;"/></svg>